<svg xmlns="http://www.w3.org/2000/svg" width="640" height="360" viewBox="0 0 640 360">
  <defs>
    <linearGradient id="bg" x1="0%" y1="0%" x2="0%" y2="100%">
      <stop offset="0%" style="stop-color:#0f172a"/>
      <stop offset="100%" style="stop-color:#1e293b"/>
    </linearGradient>
  </defs>
  <rect width="640" height="360" fill="url(#bg)" rx="8"/>
  <!-- Header -->
  <text x="320" y="36" text-anchor="middle" fill="#e2e8f0" font-family="system-ui, sans-serif" font-size="18" font-weight="600">📈 Stock Market</text>
  <line x1="40" y1="52" x2="600" y2="52" stroke="#334155" stroke-width="1"/>
  <!-- Market Stats -->
  <rect x="40" y="68" width="175" height="52" rx="6" fill="#1e293b" stroke="#475569" stroke-width="1"/>
  <text x="128" y="90" text-anchor="middle" fill="#94a3b8" font-family="system-ui, sans-serif" font-size="11">Market Cap</text>
  <text x="128" y="108" text-anchor="middle" fill="#4ade80" font-family="system-ui, sans-serif" font-size="18" font-weight="700">148,230₵</text>
  <rect x="233" y="68" width="175" height="52" rx="6" fill="#1e293b" stroke="#475569" stroke-width="1"/>
  <text x="320" y="90" text-anchor="middle" fill="#94a3b8" font-family="system-ui, sans-serif" font-size="11">24h Volume</text>
  <text x="320" y="108" text-anchor="middle" fill="#22d3ee" font-family="system-ui, sans-serif" font-size="18" font-weight="700">23,400₵</text>
  <rect x="425" y="68" width="175" height="52" rx="6" fill="#1e293b" stroke="#475569" stroke-width="1"/>
  <text x="512" y="90" text-anchor="middle" fill="#94a3b8" font-family="system-ui, sans-serif" font-size="11">Listed Stocks</text>
  <text x="512" y="108" text-anchor="middle" fill="#a78bfa" font-family="system-ui, sans-serif" font-size="18" font-weight="700">6</text>
  <!-- Price Chart Area -->
  <rect x="40" y="132" width="370" height="140" rx="6" fill="#0f172a" stroke="#334155" stroke-width="1"/>
  <text x="225" y="152" text-anchor="middle" fill="#e2e8f0" font-family="system-ui, sans-serif" font-size="13" font-weight="600">BLD Price (30 days)</text>
  <!-- Simulated chart line -->
  <polyline points="60,250 90,240 120,235 150,220 180,225 210,210 240,200 270,195 300,180 330,175 360,165 390,155"
    fill="none" stroke="#4ade80" stroke-width="2"/>
  <polyline points="60,245 90,250 120,242 150,230 180,235 210,215 240,210 270,200 300,190 330,185 360,170 390,160"
    fill="none" stroke="#475569" stroke-width="1" stroke-dasharray="4"/>
  <text x="60" y="262" fill="#64748b" font-family="monospace" font-size="9">Day 0</text>
  <text x="375" y="262" fill="#64748b" font-family="monospace" font-size="9">Day 30</text>
  <!-- Stock Table -->
  <rect x="430" y="132" width="170" height="140" rx="6" fill="#0f172a" stroke="#334155" stroke-width="1"/>
  <text x="515" y="152" text-anchor="middle" fill="#e2e8f0" font-family="system-ui, sans-serif" font-size="12" font-weight="600">Tickers</text>
  <text x="446" y="172" fill="#4ade80" font-family="monospace" font-size="11">BLD  142₵  ▲ +8%</text>
  <text x="446" y="190" fill="#4ade80" font-family="monospace" font-size="11">TRD  98₵   ▲ +3%</text>
  <text x="446" y="208" fill="#ef4444" font-family="monospace" font-size="11">WOD  65₵   ▼ -2%</text>
  <text x="446" y="226" fill="#4ade80" font-family="monospace" font-size="11">FDN  210₵  ▲ +12%</text>
  <text x="446" y="244" fill="#ef4444" font-family="monospace" font-size="11">RES  45₵   ▼ -5%</text>
  <text x="446" y="262" fill="#4ade80" font-family="monospace" font-size="11">KNW  87₵   ▲ +1%</text>
  <!-- Recent Trades -->
  <rect x="40" y="284" width="560" height="48" rx="6" fill="#0f172a" stroke="#334155" stroke-width="1"/>
  <text x="320" y="302" text-anchor="middle" fill="#e2e8f0" font-family="system-ui, sans-serif" font-size="11" font-weight="600">Recent Trades</text>
  <text x="320" y="320" text-anchor="middle" fill="#64748b" font-family="monospace" font-size="10">BUY  50 BLD @ 142₵  Agent#7  ·  SELL  20 TRD @ 98₵  Agent#42  ·  BUY  10 FDN @ 210₵  Agent#3</text>
  <!-- Watermark -->
  <text x="320" y="350" text-anchor="middle" fill="#475569" font-family="system-ui, sans-serif" font-size="10" font-style="italic">Screenshot placeholder — replace with real capture from localhost:3001</text>
</svg>
