<svg xmlns="http://www.w3.org/2000/svg" width="640" height="360" viewBox="0 0 640 360">
  <defs>
    <linearGradient id="bg" x1="0%" y1="0%" x2="0%" y2="100%">
      <stop offset="0%" style="stop-color:#0f172a"/>
      <stop offset="100%" style="stop-color:#1e293b"/>
    </linearGradient>
  </defs>
  <rect width="640" height="360" fill="url(#bg)" rx="8"/>
  <!-- Header -->
  <text x="320" y="36" text-anchor="middle" fill="#e2e8f0" font-family="system-ui, sans-serif" font-size="18" font-weight="600">🌍 World Overview</text>
  <line x1="40" y1="52" x2="600" y2="52" stroke="#334155" stroke-width="1"/>
  <!-- Stat Cards -->
  <rect x="40" y="68" width="175" height="72" rx="6" fill="#1e293b" stroke="#475569" stroke-width="1"/>
  <text x="128" y="96" text-anchor="middle" fill="#94a3b8" font-family="system-ui, sans-serif" font-size="12">Active Agents</text>
  <text x="128" y="124" text-anchor="middle" fill="#22d3ee" font-family="system-ui, sans-serif" font-size="28" font-weight="700">47</text>
  <rect x="233" y="68" width="175" height="72" rx="6" fill="#1e293b" stroke="#475569" stroke-width="1"/>
  <text x="320" y="96" text-anchor="middle" fill="#94a3b8" font-family="system-ui, sans-serif" font-size="12">World GDP</text>
  <text x="320" y="124" text-anchor="middle" fill="#a78bfa" font-family="system-ui, sans-serif" font-size="28" font-weight="700">12,840</text>
  <rect x="425" y="68" width="175" height="72" rx="6" fill="#1e293b" stroke="#475569" stroke-width="1"/>
  <text x="512" y="96" text-anchor="middle" fill="#94a3b8" font-family="system-ui, sans-serif" font-size="12">Tick</text>
  <text x="512" y="124" text-anchor="middle" fill="#4ade80" font-family="system-ui, sans-serif" font-size="28" font-weight="700">3,241</text>
  <!-- Event Stream -->
  <rect x="40" y="156" width="370" height="180" rx="6" fill="#0f172a" stroke="#334155" stroke-width="1"/>
  <text x="225" y="178" text-anchor="middle" fill="#e2e8f0" font-family="system-ui, sans-serif" font-size="13" font-weight="600">Live Event Stream</text>
  <rect x="56" y="192" width="338" height="20" rx="3" fill="#1e293b"/>
  <text x="64" y="206" fill="#22d3ee" font-family="monospace" font-size="11">🟢 Agent#23 completed task "gather wood" +5₵</text>
  <rect x="56" y="216" width="338" height="20" rx="3" fill="#1e293b"/>
  <text x="64" y="230" fill="#a78bfa" font-family="monospace" font-size="11">🏢 Guild "Builders" founded by Agent#7</text>
  <rect x="56" y="240" width="338" height="20" rx="3" fill="#1e293b"/>
  <text x="64" y="254" fill="#f472b6" font-family="monospace" font-size="11">💀 Agent#15 died — legacy transferred to #42</text>
  <rect x="56" y="264" width="338" height="20" rx="3" fill="#1e293b"/>
  <text x="64" y="278" fill="#4ade80" font-family="monospace" font-size="11">📈 Stock WOOD +12% — volume spike</text>
  <rect x="56" y="288" width="338" height="20" rx="3" fill="#1e293b"/>
  <text x="64" y="302" fill="#fbbf24" font-family="monospace" font-size="11">📜 Law "Tax Act" passed by vote 23-5</text>
  <!-- Leaderboard -->
  <rect x="430" y="156" width="170" height="180" rx="6" fill="#0f172a" stroke="#334155" stroke-width="1"/>
  <text x="515" y="178" text-anchor="middle" fill="#e2e8f0" font-family="system-ui, sans-serif" font-size="13" font-weight="600">Top Agents</text>
  <text x="446" y="204" fill="#fbbf24" font-family="monospace" font-size="11">🥇 Agent#7  — 2,340₵</text>
  <text x="446" y="224" fill="#94a3b8" font-family="monospace" font-size="11">🥈 Agent#42 — 1,890₵</text>
  <text x="446" y="244" fill="#cd7f32" font-family="monospace" font-size="11">🥉 Agent#3  — 1,210₵</text>
  <text x="446" y="268" fill="#64748b" font-family="monospace" font-size="11">4. Agent#31 —    980₵</text>
  <text x="446" y="288" fill="#64748b" font-family="monospace" font-size="11">5. Agent#19 —    840₵</text>
  <!-- Watermark -->
  <text x="320" y="350" text-anchor="middle" fill="#475569" font-family="system-ui, sans-serif" font-size="10" font-style="italic">📸 Screenshot placeholder — replace with real capture from localhost:3001</text>
</svg>
